<svg id="messenger-svgrepo-com" xmlns="http://www.w3.org/2000/svg" width="18" height="17.999" viewBox="0 0 18 17.999">
  <path id="messenger-svgrepo-com-2" data-name="messenger-svgrepo-com" d="M0,8.73A8.686,8.686,0,0,1,9,0a8.686,8.686,0,0,1,9,8.73,8.686,8.686,0,0,1-9,8.73,9.845,9.845,0,0,1-2.606-.345.719.719,0,0,0-.48.034l-1.787.79a.72.72,0,0,1-1.01-.637l-.049-1.6a.719.719,0,0,0-.242-.513A8.542,8.542,0,0,1,0,8.73ZM6.239,7.089,3.6,11.283a.428.428,0,0,0,.62.569L7.056,9.7a.54.54,0,0,1,.65,0l2.1,1.577a1.35,1.35,0,0,0,1.952-.36L14.4,6.717a.428.428,0,0,0-.62-.569L10.944,8.3a.54.54,0,0,1-.65,0l-2.1-1.578a1.35,1.35,0,0,0-1.952.36Z"/>
</svg>
