<svg xmlns="http://www.w3.org/2000/svg" width="30.315" height="21.293" viewBox="0 0 30.315 21.293">
  <path id="Path_78183" data-name="Path 78183" d="M28.531,24.512c-2.567,2.6-5.074,5.148-7.473,7.585,2.455,2.5,4.954,5.043,7.473,7.608ZM1.8,24.525V39.771l7.5-7.633q-3.679-3.732-7.5-7.613M3.242,40.988H27.081L19.6,33.37c-.431.439-.827.847-1.23,1.251a4.465,4.465,0,0,1-6.429,0c-.4-.4-.8-.812-1.23-1.251L3.242,40.988M27.237,23.353l-.041-.059H3.089a1.082,1.082,0,0,0,.074.1q5.034,5,10.078,10a2.926,2.926,0,0,0,1.008.646,2.606,2.606,0,0,0,2.915-.717q4.931-4.9,9.864-9.8c.064-.061.14-.11.209-.166m3.078,17.069a7.085,7.085,0,0,1-.533,1.258,2.532,2.532,0,0,1-2.116,1.105c-.061,0-.12,0-.179,0H2.836A2.724,2.724,0,0,1,.544,41.718,2.636,2.636,0,0,1,0,40.065q0-7.92,0-15.844a2.661,2.661,0,0,1,2.8-2.723q5.1-.008,10.208,0,7.235,0,14.47,0a2.642,2.642,0,0,1,2.56,1.529,6.014,6.014,0,0,1,.271.835Z" transform="translate(0 -21.495)"/>
</svg>
