<svg id="style_fill" data-name="style=fill" xmlns="http://www.w3.org/2000/svg" width="20.918" height="17.999" viewBox="0 0 20.918 17.999">
  <g id="email">
    <path id="Subtract" d="M6.844,2.75A5.756,5.756,0,0,0,2.821,4.1,5.545,5.545,0,0,0,1.25,8.344v6.811A5.545,5.545,0,0,0,2.821,19.4a5.756,5.756,0,0,0,4.023,1.35h9.729A5.756,5.756,0,0,0,20.6,19.4a5.544,5.544,0,0,0,1.571-4.244V8.344A5.545,5.545,0,0,0,20.6,4.1a5.756,5.756,0,0,0-4.023-1.35Zm11.9,5.46a.73.73,0,0,0-.892-1.155l-5.4,4.17a1.216,1.216,0,0,1-1.487,0l-5.4-4.17A.73.73,0,1,0,4.676,8.21l5.4,4.17a2.676,2.676,0,0,0,3.272,0Z" transform="translate(-1.25 -2.75)" fill-rule="evenodd"/>
  </g>
</svg>
