<svg xmlns="http://www.w3.org/2000/svg" width="24.886" height="24.886" viewBox="0 0 24.886 24.886">
  <g id="Group_22049" data-name="Group 22049" transform="translate(0 0)">
    <path id="Path_78180" data-name="Path 78180" d="M144.775,45h.388l1.687,0c.564,0,1.125,0,1.689,0,1.138,0,2.057-.005,2.892-.015a5.5,5.5,0,0,0,1.669-.25,4.621,4.621,0,0,0,3.157-4.53c.005-4.7,0-8.818,0-12.579a5.089,5.089,0,0,0-.1-1.105,4.59,4.59,0,0,0-4.6-3.68c-1.526-.005-3.2-.008-5.252-.008h-3.29l-3.29,0h-.9a4.4,4.4,0,0,0-2,.424,4.581,4.581,0,0,0-2.723,4.379c-.005,4.293,0,8.573,0,12.556a7.024,7.024,0,0,0,.061.9,4.637,4.637,0,0,0,4.3,3.884c.783.01,1.626.015,2.649.015l2.024,0c.546,0,1.09-.005,1.636-.005Zm1.161,1.363c-2.782,0-4.913,0-6.906-.005a6.833,6.833,0,0,1-1.228-.089,5.876,5.876,0,0,1-4.637-3.769,6.544,6.544,0,0,1-.309-1.161c-.038-.179-.074-.365-.117-.546V27.035l.023-.138c.02-.12.041-.24.064-.36a5.91,5.91,0,0,1,3.752-4.624,6.475,6.475,0,0,1,1.179-.316c.181-.036.368-.074.551-.12h13.748c.145.031.288.056.429.082a7.56,7.56,0,0,1,.932.212,6,6,0,0,1,4.2,5.775c.01,4.088.005,8.246,0,12.265v.49a5.818,5.818,0,0,1-1.113,3.5,6.008,6.008,0,0,1-5.1,2.562Z" transform="translate(-132.739 -21.476)"/>
    <path id="Path_78181" data-name="Path 78181" d="M141.271,25.352a4.663,4.663,0,0,0,.005,9.325,4.663,4.663,0,0,0,.013-9.325Zm-.023,10.688a6.033,6.033,0,0,1-4.29-1.832,5.919,5.919,0,0,1-1.7-4.234,6.053,6.053,0,0,1,5.995-5.982h.059a6.044,6.044,0,0,1,4.293,1.832,5.9,5.9,0,0,1,1.7,4.231,6.053,6.053,0,0,1-5.992,5.985Z" transform="translate(-128.837 -17.571)"/>
    <path id="Path_78182" data-name="Path 78182" d="M141.07,25.57a1.194,1.194,0,0,1-1.2-1.2,1.214,1.214,0,0,1,.355-.865,1.194,1.194,0,0,1,.85-.355,1.226,1.226,0,0,1,1.215,1.207,1.174,1.174,0,0,1-.345.845,1.215,1.215,0,0,1-.868.365Z" transform="translate(-121.679 -18.873)"/>
  </g>
</svg>
