<svg class="icon icon-account" xmlns="http://www.w3.org/2000/svg" width="15.063" height="18.055" viewBox="0 0 15.063 18.055">
  <g id="Group_20482" data-name="Group 20482" transform="translate(-1810.107 -38)">
    <path id="Path_78140" data-name="Path 78140" d="M91.38,8.7a4.208,4.208,0,0,0,3.075-1.274,4.208,4.208,0,0,0,1.274-3.075,4.208,4.208,0,0,0-1.274-3.075,4.348,4.348,0,0,0-6.149,0,4.208,4.208,0,0,0-1.274,3.075,4.208,4.208,0,0,0,1.274,3.075A4.209,4.209,0,0,0,91.38,8.7ZM89.054,2.022a3.289,3.289,0,0,1,4.653,0,3.144,3.144,0,0,1,.964,2.326,3.144,3.144,0,0,1-.964,2.327,3.289,3.289,0,0,1-4.653,0,3.143,3.143,0,0,1-.964-2.327A3.144,3.144,0,0,1,89.054,2.022Zm0,0" transform="translate(1726.146 38)"/>
    <path id="Path_78141" data-name="Path 78141" d="M15.027,252.479a10.741,10.741,0,0,0-.146-1.141,8.988,8.988,0,0,0-.281-1.147,5.666,5.666,0,0,0-.472-1.07,4.032,4.032,0,0,0-.711-.927,3.135,3.135,0,0,0-1.021-.642,3.53,3.53,0,0,0-1.3-.236,1.324,1.324,0,0,0-.707.3c-.212.138-.46.3-.736.475a4.219,4.219,0,0,1-.953.42,3.7,3.7,0,0,1-2.33,0,4.206,4.206,0,0,1-.952-.42c-.274-.175-.522-.335-.737-.475a1.322,1.322,0,0,0-.707-.3,3.525,3.525,0,0,0-1.3.236,3.132,3.132,0,0,0-1.022.642,4.033,4.033,0,0,0-.711.926,5.677,5.677,0,0,0-.472,1.07,9.011,9.011,0,0,0-.28,1.147,10.668,10.668,0,0,0-.146,1.141c-.024.345-.036.7-.036,1.066a3,3,0,0,0,.89,2.268,3.205,3.205,0,0,0,2.294.837h8.694a3.205,3.205,0,0,0,2.294-.837,3,3,0,0,0,.891-2.268C15.063,253.181,15.051,252.822,15.027,252.479Zm-1.584,2.568a2.158,2.158,0,0,1-1.565.545H3.185a2.158,2.158,0,0,1-1.565-.545,1.958,1.958,0,0,1-.562-1.5c0-.338.011-.672.033-.993a9.622,9.622,0,0,1,.132-1.027,7.947,7.947,0,0,1,.247-1.011,4.621,4.621,0,0,1,.384-.87,2.99,2.99,0,0,1,.522-.685,2.079,2.079,0,0,1,.68-.422,2.435,2.435,0,0,1,.833-.161c.037.02.1.057.21.127.218.142.468.3.745.48a5.243,5.243,0,0,0,1.2.534,4.757,4.757,0,0,0,2.981,0,5.249,5.249,0,0,0,1.2-.535c.284-.181.527-.338.745-.48.107-.07.173-.107.21-.127a2.436,2.436,0,0,1,.834.161,2.083,2.083,0,0,1,.679.422,2.982,2.982,0,0,1,.522.685,4.606,4.606,0,0,1,.384.87,7.928,7.928,0,0,1,.247,1.011,9.7,9.7,0,0,1,.132,1.028h0c.022.319.034.653.034.993A1.958,1.958,0,0,1,13.443,255.047Zm0,0" transform="translate(1810.107 -200.595)"/>
  </g>
</svg>
