<svg xmlns="http://www.w3.org/2000/svg" width="24" height="24" viewBox="0 0 24 24">
  <g id="whatsapp" transform="translate(0 0)">
    <path id="Path_78208" data-name="Path 78208" d="M17.507,14.307l-.009.075c-2.2-1.1-2.429-1.242-2.713-.816-.2.3-.771.964-.944,1.162s-.349.21-.646.075a8.116,8.116,0,0,1-2.4-1.485,9.073,9.073,0,0,1-1.66-2.07c-.293-.506.32-.578.878-1.634a.55.55,0,0,0-.025-.524c-.075-.15-.672-1.62-.922-2.206s-.487-.51-.672-.51a1.488,1.488,0,0,0-1.368.344c-1.614,1.774-1.207,3.6.174,5.55,2.714,3.552,4.16,4.206,6.8,5.114a4.137,4.137,0,0,0,1.88.121A3.077,3.077,0,0,0,17.9,16.077a2.475,2.475,0,0,0,.18-1.425c-.074-.135-.27-.21-.57-.345Z"/>
    <path id="Path_78209" data-name="Path 78209" d="M20.52,3.449C12.831-3.984.106,1.407.1,11.893a11.836,11.836,0,0,0,1.6,5.945L0,24l6.335-1.652A11.971,11.971,0,0,0,24,11.9a11.794,11.794,0,0,0-3.495-8.411ZM22,11.866A9.956,9.956,0,0,1,6.99,20.37l-.36-.214-3.75.975,1.005-3.645-.239-.375A9.918,9.918,0,0,1,19.093,4.876,9.788,9.788,0,0,1,22,11.866Z"/>
  </g>
</svg>
