<svg xmlns="http://www.w3.org/2000/svg" width="24.887" height="25.228" viewBox="0 0 24.887 25.228">
  <path id="Path_78179" data-name="Path 78179" d="M150.612,25.336a2.665,2.665,0,0,0,1.993-.709q1.095-1.068,2.128-2.2a1.165,1.165,0,0,0-.028-1.756c-1.09-1.128-2.2-2.238-3.31-3.341a1.089,1.089,0,0,0-1.526-.059,4.011,4.011,0,0,0-.324.3c-.6.607-1.2,1.22-1.812,1.825a1.027,1.027,0,0,1-1.314.212c-.355-.181-.707-.368-1.049-.572a19.019,19.019,0,0,1-4.262-3.606,14.838,14.838,0,0,1-2.682-3.9,1.129,1.129,0,0,1,.294-1.519c.6-.582,1.192-1.164,1.771-1.761a1.235,1.235,0,0,0,.005-2l-.018-.018c-1.006-1.016-2.009-2.034-3.019-3.042a1.949,1.949,0,0,0-.549-.4,1.2,1.2,0,0,0-1.427.39c-.615.607-1.238,1.21-1.82,1.85a3.645,3.645,0,0,0-.679,1.034,4.21,4.21,0,0,0-.084,2.516,16.06,16.06,0,0,0,1.771,4.609,26.474,26.474,0,0,0,5.372,6.8,24.028,24.028,0,0,0,7.281,4.617,9.6,9.6,0,0,0,3.287.738m-.48,1.268c-.35-.056-.7-.107-1.051-.174a14.9,14.9,0,0,1-3.864-1.383,24.932,24.932,0,0,1-5.589-3.739,25.935,25.935,0,0,1-7.557-10.895,9.521,9.521,0,0,1-.567-3.325,4.062,4.062,0,0,1,1.151-2.866c.684-.7,1.348-1.429,2.083-2.075a2.368,2.368,0,0,1,3.547.056c1.151,1.1,2.261,2.241,3.346,3.407a2.3,2.3,0,0,1,.015,3.228c-.607.681-1.268,1.317-1.917,1.96a.273.273,0,0,0-.064.375,14.514,14.514,0,0,0,2.59,3.611,17.95,17.95,0,0,0,3.438,2.93c.334.214.7.385,1.039.592a.224.224,0,0,0,.329-.048c.538-.556,1.087-1.108,1.636-1.656a2.787,2.787,0,0,1,1.516-.875,2.324,2.324,0,0,1,2.111.712c1.062,1.051,2.111,2.116,3.16,3.18a2.461,2.461,0,0,1,.176,3.655c-.722.84-1.521,1.615-2.322,2.381a3.517,3.517,0,0,1-2.067.9,1.191,1.191,0,0,0-.163.046Z" transform="translate(-131.502 -1.376)"/>
</svg>
