<svg class="icon icon-cart-empty" xmlns="http://www.w3.org/2000/svg" width="21.469" height="18.055" viewBox="0 0 21.469 18.055">
  <g id="Group_20481" data-name="Group 20481" transform="translate(-1738.531 -38)">
    <path id="Path_24" data-name="Path 24" d="M1543.687,53.588l-7.066,0a1.334,1.334,0,0,1-1.344-1.057c-.825-3.586-1.556-6.791-2.236-9.8a1.308,1.308,0,0,1,.247-1.1,1.258,1.258,0,0,1,.965-.489c.578-.013,1.207-.02,1.922-.02.7,0,1.4.006,2.071.012h.011a.54.54,0,0,0,.567-.379c.593-1.38,1.205-2.779,1.8-4.132l.319-.729a.534.534,0,0,1,.466-.364.442.442,0,0,1,.092.01.483.483,0,0,1,.34.246.558.558,0,0,1,0,.483q-.468,1.078-.941,2.155l-.511,1.17c-.129.3-.257.591-.388.894l-.271.625h8.028l-.087-.214-.035-.088c-.023-.058-.044-.111-.067-.163l-.694-1.591q-.607-1.391-1.214-2.783a.568.568,0,0,1-.012-.48.512.512,0,0,1,.441-.263.5.5,0,0,1,.452.338c.354.8.71,1.618,1.055,2.407l.128.294.242.551c.237.538.482,1.094.708,1.646a.524.524,0,0,0,.556.364h.012c.534,0,1.1-.007,1.838-.007h1.882a1.359,1.359,0,0,1,1.5,1.07.183.183,0,0,0,.021.042v.47q-.059.245-.119.489c-.088.359-.178.73-.262,1.1q-.43,1.873-.857,3.745-.51,2.231-1.021,4.461a1.348,1.348,0,0,1-1.348,1.081l-7.183,0M1535.46,42.1h-1.065a.4.4,0,0,0-.333.133.427.427,0,0,0-.054.375l.583,2.554c.527,2.307,1.071,4.693,1.6,7.04a.472.472,0,0,0,.51.411h.015c.163,0,.338,0,.553,0h13.439c.364,0,.5-.06.58-.413q1.091-4.775,2.181-9.551a.475.475,0,0,0-.044-.412.49.49,0,0,0-.4-.136h-3.318a1.36,1.36,0,0,0-.14.01l-.074.007-.215.018.086.2.052.119c.033.074.062.141.09.209a.494.494,0,0,1-.44.712.5.5,0,0,1-.449-.319c-.1-.221-.2-.455-.308-.713a.355.355,0,0,0-.364-.245l-4.187,0-4.215,0a.359.359,0,0,0-.362.247c-.1.251-.21.507-.329.748a.477.477,0,0,1-.428.282.5.5,0,0,1-.2-.041.489.489,0,0,1-.256-.637c.029-.077.061-.154.1-.235l.052-.124.067-.163-.17-.047-.034-.01a.248.248,0,0,0-.078-.014h-2.445" transform="translate(205.522 2.467)"/>
    <path id="Path_25" data-name="Path 25" d="M1657.322,226.961a.5.5,0,0,1-.479-.547q0-2.283,0-4.566a.484.484,0,1,1,.963.005q0,.809,0,1.618v1.343q0,.8,0,1.605a.492.492,0,0,1-.481.542Z" transform="translate(88.114 -177.312)"/>
    <path id="Path_26" data-name="Path 26" d="M1731.108,226.961a.493.493,0,0,1-.481-.544q0-2.283,0-4.566a.484.484,0,1,1,.963,0q0,.8,0,1.6v1.343q0,.811,0,1.622a.494.494,0,0,1-.481.545Z" transform="translate(18.158 -177.312)"/>
    <path id="Path_27" data-name="Path 27" d="M1804.892,226.961a.494.494,0,0,1-.48-.545q0-2.283,0-4.566a.484.484,0,1,1,.963,0q0,.8,0,1.607V224.8q0,.81,0,1.619a.493.493,0,0,1-.481.544Z" transform="translate(-51.799 -177.312)"/>
  </g>
</svg>
